<svg id="visual" viewBox="0 0 960 540" width="960" height="540" xmlns="http://www.w3.org/2000/svg" xmlns:xlink="http://www.w3.org/1999/xlink" version="1.1"><path d="M0 398L14.5 384.2C29 370.3 58 342.7 87.2 328C116.3 313.3 145.7 311.7 174.8 313.2C204 314.7 233 319.3 262 329.8C291 340.3 320 356.7 349 356C378 355.3 407 337.7 436.2 337.3C465.3 337 494.7 354 523.8 356.7C553 359.3 582 347.7 611 347.3C640 347 669 358 698 360.5C727 363 756 357 785.2 359C814.3 361 843.7 371 872.8 368.2C902 365.3 931 349.7 945.5 341.8L960 334L960 541L945.5 541C931 541 902 541 872.8 541C843.7 541 814.3 541 785.2 541C756 541 727 541 698 541C669 541 640 541 611 541C582 541 553 541 523.8 541C494.7 541 465.3 541 436.2 541C407 541 378 541 349 541C320 541 291 541 262 541C233 541 204 541 174.8 541C145.7 541 116.3 541 87.2 541C58 541 29 541 14.5 541L0 541Z" fill="#4380b1"></path><path d="M0 377L14.5 375.8C29 374.7 58 372.3 87.2 372.3C116.3 372.3 145.7 374.7 174.8 379.5C204 384.3 233 391.7 262 387.5C291 383.3 320 367.7 349 363.2C378 358.7 407 365.3 436.2 369.7C465.3 374 494.7 376 523.8 376.3C553 376.7 582 375.3 611 378.8C640 382.3 669 390.7 698 390C727 389.3 756 379.7 785.2 380.2C814.3 380.7 843.7 391.3 872.8 387.8C902 384.3 931 366.7 945.5 357.8L960 349L960 541L945.5 541C931 541 902 541 872.8 541C843.7 541 814.3 541 785.2 541C756 541 727 541 698 541C669 541 640 541 611 541C582 541 553 541 523.8 541C494.7 541 465.3 541 436.2 541C407 541 378 541 349 541C320 541 291 541 262 541C233 541 204 541 174.8 541C145.7 541 116.3 541 87.2 541C58 541 29 541 14.5 541L0 541Z" fill="#3c75a1"></path><path d="M0 397L14.5 396.8C29 396.7 58 396.3 87.2 399C116.3 401.7 145.7 407.3 174.8 412C204 416.7 233 420.3 262 412.5C291 404.7 320 385.3 349 381.2C378 377 407 388 436.2 394.7C465.3 401.3 494.7 403.7 523.8 406C553 408.3 582 410.7 611 410C640 409.3 669 405.7 698 401C727 396.3 756 390.7 785.2 387C814.3 383.3 843.7 381.7 872.8 386.7C902 391.7 931 403.3 945.5 409.2L960 415L960 541L945.5 541C931 541 902 541 872.8 541C843.7 541 814.3 541 785.2 541C756 541 727 541 698 541C669 541 640 541 611 541C582 541 553 541 523.8 541C494.7 541 465.3 541 436.2 541C407 541 378 541 349 541C320 541 291 541 262 541C233 541 204 541 174.8 541C145.7 541 116.3 541 87.2 541C58 541 29 541 14.5 541L0 541Z" fill="#366a92"></path><path d="M0 434L14.5 431.2C29 428.3 58 422.7 87.2 419.7C116.3 416.7 145.7 416.3 174.8 418.7C204 421 233 426 262 430.3C291 434.7 320 438.3 349 440.2C378 442 407 442 436.2 437.7C465.3 433.3 494.7 424.7 523.8 414.8C553 405 582 394 611 388.7C640 383.3 669 383.7 698 387.7C727 391.7 756 399.3 785.2 408.7C814.3 418 843.7 429 872.8 426.7C902 424.3 931 408.7 945.5 400.8L960 393L960 541L945.5 541C931 541 902 541 872.8 541C843.7 541 814.3 541 785.2 541C756 541 727 541 698 541C669 541 640 541 611 541C582 541 553 541 523.8 541C494.7 541 465.3 541 436.2 541C407 541 378 541 349 541C320 541 291 541 262 541C233 541 204 541 174.8 541C145.7 541 116.3 541 87.2 541C58 541 29 541 14.5 541L0 541Z" fill="#305f83"></path><path d="M0 404L14.5 408.2C29 412.3 58 420.7 87.2 429.2C116.3 437.7 145.7 446.3 174.8 441.8C204 437.3 233 419.7 262 412.3C291 405 320 408 349 410.8C378 413.7 407 416.3 436.2 415.5C465.3 414.7 494.7 410.3 523.8 407.5C553 404.7 582 403.3 611 406.3C640 409.3 669 416.7 698 416.7C727 416.7 756 409.3 785.2 415.2C814.3 421 843.7 440 872.8 442.2C902 444.3 931 429.7 945.5 422.3L960 415L960 541L945.5 541C931 541 902 541 872.8 541C843.7 541 814.3 541 785.2 541C756 541 727 541 698 541C669 541 640 541 611 541C582 541 553 541 523.8 541C494.7 541 465.3 541 436.2 541C407 541 378 541 349 541C320 541 291 541 262 541C233 541 204 541 174.8 541C145.7 541 116.3 541 87.2 541C58 541 29 541 14.5 541L0 541Z" fill="#2a5474"></path><path d="M0 459L14.5 458.3C29 457.7 58 456.3 87.2 457.3C116.3 458.3 145.7 461.7 174.8 463C204 464.3 233 463.7 262 464C291 464.3 320 465.7 349 460C378 454.3 407 441.7 436.2 439C465.3 436.3 494.7 443.7 523.8 443.2C553 442.7 582 434.3 611 435.7C640 437 669 448 698 456C727 464 756 469 785.2 470.7C814.3 472.3 843.7 470.7 872.8 463.5C902 456.3 931 443.7 945.5 437.3L960 431L960 541L945.5 541C931 541 902 541 872.8 541C843.7 541 814.3 541 785.2 541C756 541 727 541 698 541C669 541 640 541 611 541C582 541 553 541 523.8 541C494.7 541 465.3 541 436.2 541C407 541 378 541 349 541C320 541 291 541 262 541C233 541 204 541 174.8 541C145.7 541 116.3 541 87.2 541C58 541 29 541 14.5 541L0 541Z" fill="#254965"></path><path d="M0 495L14.5 494.5C29 494 58 493 87.2 486.7C116.3 480.3 145.7 468.7 174.8 467.2C204 465.7 233 474.3 262 472.8C291 471.3 320 459.7 349 461.5C378 463.3 407 478.7 436.2 482.2C465.3 485.7 494.7 477.3 523.8 472.8C553 468.3 582 467.7 611 466C640 464.3 669 461.7 698 464.5C727 467.3 756 475.7 785.2 473.8C814.3 472 843.7 460 872.8 454C902 448 931 448 945.5 448L960 448L960 541L945.5 541C931 541 902 541 872.8 541C843.7 541 814.3 541 785.2 541C756 541 727 541 698 541C669 541 640 541 611 541C582 541 553 541 523.8 541C494.7 541 465.3 541 436.2 541C407 541 378 541 349 541C320 541 291 541 262 541C233 541 204 541 174.8 541C145.7 541 116.3 541 87.2 541C58 541 29 541 14.5 541L0 541Z" fill="#1f3f57"></path><path d="M0 506L14.5 506.8C29 507.7 58 509.3 87.2 506C116.3 502.7 145.7 494.3 174.8 488.7C204 483 233 480 262 480C291 480 320 483 349 484.8C378 486.7 407 487.3 436.2 490.7C465.3 494 494.7 500 523.8 498.5C553 497 582 488 611 482.3C640 476.7 669 474.3 698 474.2C727 474 756 476 785.2 479.5C814.3 483 843.7 488 872.8 487.7C902 487.3 931 481.7 945.5 478.8L960 476L960 541L945.5 541C931 541 902 541 872.8 541C843.7 541 814.3 541 785.2 541C756 541 727 541 698 541C669 541 640 541 611 541C582 541 553 541 523.8 541C494.7 541 465.3 541 436.2 541C407 541 378 541 349 541C320 541 291 541 262 541C233 541 204 541 174.8 541C145.7 541 116.3 541 87.2 541C58 541 29 541 14.5 541L0 541Z" fill="#1a3549"></path><path d="M0 505L14.5 506.7C29 508.3 58 511.7 87.2 510.8C116.3 510 145.7 505 174.8 503C204 501 233 502 262 502.8C291 503.7 320 504.3 349 506.3C378 508.3 407 511.7 436.2 512.7C465.3 513.7 494.7 512.3 523.8 512C553 511.7 582 512.3 611 514.2C640 516 669 519 698 520.2C727 521.3 756 520.7 785.2 518C814.3 515.3 843.7 510.7 872.8 507.2C902 503.7 931 501.3 945.5 500.2L960 499L960 541L945.5 541C931 541 902 541 872.8 541C843.7 541 814.3 541 785.2 541C756 541 727 541 698 541C669 541 640 541 611 541C582 541 553 541 523.8 541C494.7 541 465.3 541 436.2 541C407 541 378 541 349 541C320 541 291 541 262 541C233 541 204 541 174.8 541C145.7 541 116.3 541 87.2 541C58 541 29 541 14.5 541L0 541Z" fill="#152b3c"></path></svg>